<svg width="105" height="27" viewBox="0 0 105 27" fill="none" xmlns="http://www.w3.org/2000/svg">
<g clip-path="url(#clip0_1_737)">
<path d="M5.22384 2.68605C5.10174 4.32558 4.74419 10.1686 6.96802 10.718C7.18605 5.2064 8.18895 4.00291 12.593 0C11.9041 0.880814 10.3169 2.60756 10.186 3.68895C11.3721 2.52907 13.0901 1.32558 15.2878 0C14.0494 1.0814 9.66279 4.95349 10.8488 6.9157C14.8953 3.1657 16.4564 3.02616 22.4041 3.31395C21.2965 3.45349 18.9506 3.54942 18.0959 4.22093C19.7529 4.23837 21.8198 4.59593 24.314 5.22384C22.6657 5.10174 16.8314 4.74419 16.282 6.96802C21.7936 7.18605 22.9971 8.18895 27 12.593C26.1105 11.9041 24.3924 10.3169 23.311 10.186C24.4709 11.3721 25.6744 13.0901 27 15.2878C25.9186 14.0494 22.0465 9.66279 20.0843 10.8488C23.8343 14.9128 23.9738 16.4302 23.686 22.4041C23.5552 21.3227 23.4244 18.907 22.7791 18.0872C22.7616 19.7529 22.4041 21.811 21.7762 24.314C21.8983 22.6744 22.2471 16.8314 20.0233 16.282C19.814 21.7936 18.811 22.9884 14.407 27C15.0698 26.1366 16.6919 24.3401 16.814 23.3023C15.6279 24.4709 13.9099 25.6744 11.7035 27C12.9506 25.9273 17.3285 22.0378 16.1512 20.0843C12.1047 23.8343 10.5436 23.9651 4.59593 23.686C5.6686 23.5552 8.09302 23.4244 8.91279 22.7791C7.24709 22.7616 5.18023 22.4041 2.68605 21.7762C4.32558 21.8983 10.1686 22.2471 10.718 20.0233C5.2064 19.814 4.01163 18.811 0 14.407C0.854651 15.0698 2.65988 16.6919 3.69767 16.814C2.52907 15.6279 1.32558 13.9099 0 11.7035C1.07267 12.9506 4.95349 17.3285 6.9157 16.1424C3.1657 12.0959 3.02616 10.5436 3.31395 4.59593C3.45349 5.70349 3.54942 8.04942 4.22093 8.90407C4.23837 7.24709 4.59593 5.18023 5.22384 2.68605ZM9.73256 8.5814C9.68023 9.3314 9.52326 11.9826 10.5349 12.2355C10.6308 9.73256 11.0843 9.18314 13.0901 7.36047C12.7762 7.76163 12.0523 8.54651 11.9913 9.04361C12.532 8.51163 13.3081 7.96221 14.311 7.36047C13.7442 7.85756 11.7558 9.61047 12.2965 10.5087C14.1366 8.79942 14.843 8.73837 17.5465 8.86919C17.0407 8.93023 15.9767 8.97384 15.5843 9.27907C16.343 9.28779 17.2762 9.45349 18.4099 9.73256C17.6686 9.68023 15.0174 9.52326 14.7645 10.5349C17.2674 10.6308 17.8169 11.0843 19.6308 13.0901C19.2297 12.7762 18.4448 12.0523 17.9564 11.9913C18.4884 12.532 19.0291 13.3081 19.6308 14.311C19.1424 13.7442 17.3808 11.7558 16.4913 12.2965C18.1919 14.1453 18.2616 14.8343 18.1308 17.5465C18.0698 17.0581 18.0087 15.9593 17.7122 15.5843C17.7122 16.343 17.5465 17.2762 17.2587 18.4099C17.311 17.6686 17.4767 15.0087 16.4651 14.7645C16.3692 17.2674 15.9157 17.8169 13.9099 19.6308C14.2151 19.2471 14.9477 18.4273 15.0087 17.9564C14.468 18.4884 13.6919 19.0291 12.689 19.6308C13.2471 19.1424 15.2442 17.3808 14.7035 16.4913C12.8634 18.1919 12.157 18.2616 9.45349 18.1308C9.94186 18.0698 11.0407 18.0087 11.4157 17.7122C10.657 17.7122 9.72384 17.5465 8.5814 17.2587C9.3314 17.311 11.9826 17.4767 12.2355 16.4651C9.73256 16.3692 9.18314 15.9157 7.36047 13.9099C7.75291 14.2151 8.57267 14.9477 9.04361 15.0087C8.51163 14.468 7.96221 13.6919 7.36047 12.689C7.84884 13.2471 9.61919 15.2442 10.5087 14.7035C8.79942 12.8634 8.73837 12.157 8.86919 9.45349C8.93023 9.9593 8.97384 11.0233 9.27907 11.4157C9.28779 10.657 9.45349 9.71512 9.73256 8.5814Z" fill="url(#paint0_linear_1_737)"/>
<path d="M34.2732 9.24882H32.8846L34.6339 17.8328H36.1487L35.0306 12.549L34.2732 9.24882ZM40.1161 9.24882L39.1063 12.8375L39.7915 15.4523L41.4506 9.24882H40.1161ZM37.9339 11.8816L37.8257 11.4308L37.2486 9.24878L36.4732 11.8096L36.4371 11.8817L36.1486 12.8916L36.6896 15.3081L37.0322 14.1179L37.9159 17.8328H39.4487L38.1142 12.549L37.9339 11.8816ZM45.7785 16.4622C45.5982 16.4261 45.4299 16.372 45.2736 16.2999C44.9369 16.1436 44.6424 15.9272 44.3899 15.6507C44.1495 15.3982 43.9571 15.0856 43.8129 14.713C43.6806 14.3403 43.6145 13.9616 43.6145 13.5768V13.5408V13.4867C43.6145 13.0899 43.6806 12.7052 43.8129 12.3325C43.9692 11.9478 44.1615 11.6413 44.39 11.4128C44.6304 11.1363 44.9189 10.9259 45.2556 10.7817C45.4599 10.6855 45.6343 10.6254 45.7785 10.6014V9.24885C45.3577 9.30895 44.9851 9.41115 44.6604 9.55541C44.1315 9.78384 43.6806 10.0904 43.3079 10.4751C42.9352 10.8598 42.6407 11.3167 42.4243 11.8456C42.2079 12.3746 42.0997 12.9276 42.0997 13.5047V13.5408V13.5949C42.0997 14.1839 42.2079 14.737 42.4243 15.2539C42.6167 15.7709 42.9052 16.2217 43.2899 16.6065C43.6746 17.0032 44.1255 17.3098 44.6424 17.5262C44.967 17.6704 45.3457 17.7726 45.7785 17.8327V16.4622ZM50.6836 13.5408L50.6836 13.4867C50.6836 12.8976 50.5754 12.3446 50.359 11.8276C50.1426 11.2987 49.8481 10.8418 49.4754 10.4571C49.1147 10.0724 48.6699 9.77184 48.1409 9.55544C47.8403 9.41117 47.4737 9.30898 47.0409 9.24888V10.6194L47.2573 10.6915C47.3655 10.7276 47.4496 10.7577 47.5097 10.7817C47.8464 10.938 48.1409 11.1544 48.3934 11.4309C48.6338 11.6834 48.8262 11.9959 48.9704 12.3686C49.1027 12.7413 49.1688 13.12 49.1688 13.5047V13.5408V13.5949C49.1688 13.9917 49.1027 14.3764 48.9704 14.749C48.8141 15.1337 48.6218 15.4403 48.3933 15.6688C48.1529 15.9453 47.8644 16.1557 47.5277 16.2999C47.3714 16.3721 47.2092 16.4262 47.0408 16.4622V17.8328C47.4015 17.7847 47.7622 17.6825 48.1228 17.5262C48.6157 17.3218 49.0666 17.0152 49.4753 16.6065C49.8721 16.1857 50.1666 15.7289 50.359 15.236C50.5754 14.707 50.6836 14.154 50.6836 13.5769L50.6836 13.5408ZM59.2673 17.8327L56.9411 14.5866C57.2536 14.4904 57.5301 14.3762 57.7706 14.244C58.0351 14.0757 58.2515 13.8894 58.4198 13.685C58.6121 13.4566 58.7504 13.2101 58.8346 12.9456C58.9428 12.6571 58.9969 12.3325 58.9969 11.9718C58.9969 11.551 58.9247 11.1723 58.7805 10.8357C58.6362 10.5111 58.4258 10.2286 58.1493 9.98812C57.8848 9.75969 57.5482 9.57935 57.1394 9.4471C56.7186 9.31487 56.2738 9.24874 55.8049 9.24874H51.9818V10.6193H55.6787C56.2437 10.6193 56.6825 10.7395 56.9951 10.9799C57.3076 11.2204 57.464 11.581 57.464 12.0619C57.464 12.5068 57.3077 12.8554 56.9951 13.1079C56.6825 13.3724 56.2497 13.5046 55.6967 13.5046H51.9818V17.8326H53.4785V14.839H55.372L57.4819 17.8326L59.2673 17.8327ZM67.6168 17.8327H69.1316V11.503L67.6168 13.7211V17.8327ZM69.1317 9.24882H67.5087L64.8579 13.3605L62.2251 9.24882H60.6021V17.8328H62.1169V11.7376L64.8219 15.7951H64.876L67.2383 12.2967C67.2503 12.2486 67.8815 11.2327 69.1318 9.24906L69.1317 9.24882ZM72.035 12.8195V9.23082H70.5202V17.8508H72.035V12.8195ZM76.1645 9.23082V12.8195H73.5317V14.2261H76.1645V17.8508H77.6613V9.23077L76.1645 9.23082ZM82.7108 16.4622C82.5304 16.4261 82.3621 16.372 82.2058 16.2999C81.8692 16.1436 81.5746 15.9272 81.3222 15.6507C81.0818 15.3982 80.8894 15.0856 80.7451 14.713C80.6129 14.3403 80.5468 13.9616 80.5468 13.5768V13.5408V13.4867C80.5468 13.0899 80.6129 12.7052 80.7451 12.3325C80.9014 11.9478 81.0938 11.6413 81.3222 11.4128C81.5626 11.1363 81.8512 10.9259 82.1878 10.7817C82.3922 10.6855 82.5665 10.6254 82.7108 10.6014V9.24885C82.29 9.30895 81.9173 9.41115 81.5927 9.55541C81.0637 9.78384 80.6129 10.0904 80.2402 10.4751C79.8675 10.8598 79.573 11.3167 79.3566 11.8456C79.1402 12.3746 79.0319 12.9276 79.0319 13.5047V13.5408V13.5949C79.0319 14.1839 79.1401 14.737 79.3566 15.2539C79.5489 15.7709 79.8375 16.2217 80.2222 16.6065C80.6069 17.0032 81.0577 17.3098 81.5747 17.5262C81.8993 17.6704 82.278 17.7726 82.7108 17.8327V16.4622ZM87.6158 13.5408L87.6159 13.4867C87.6159 12.8976 87.5077 12.3446 87.2912 11.8276C87.0748 11.2987 86.7803 10.8418 86.4076 10.4571C86.0469 10.0724 85.6021 9.77184 85.0731 9.55544C84.7726 9.41117 84.4059 9.30898 83.9731 9.24888V10.6194L84.1895 10.6915C84.2977 10.7276 84.3819 10.7577 84.442 10.7817C84.7786 10.938 85.0732 11.1544 85.3256 11.4309C85.566 11.6834 85.7584 11.9959 85.9027 12.3686C86.0349 12.7413 86.101 13.12 86.101 13.5047V13.5408V13.5949C86.101 13.9917 86.0349 14.3764 85.9027 14.749C85.7464 15.1337 85.554 15.4403 85.3256 15.6688C85.0852 15.9453 84.7966 16.1557 84.46 16.2999C84.3037 16.3721 84.1414 16.4262 83.9731 16.4622V17.8328C84.3338 17.7847 84.6944 17.6825 85.0551 17.5262C85.548 17.3218 85.9988 17.0152 86.4076 16.6065C86.8043 16.1857 87.0989 15.7289 87.2912 15.236C87.5076 14.707 87.6158 14.154 87.6158 13.5769L87.6158 13.5408ZM89.5634 9.24882H91.0421V16.4622H95.5504V17.8327H89.5632L89.5634 9.24882ZM98.5801 9.24882H105V10.6194H98.5801V9.24882ZM98.5801 16.4622H104.982V17.8327H98.5801V16.4622ZM98.5801 12.8195H104.369V14.172H98.5801V12.8195Z" fill="url(#paint1_linear_1_737)"/>
</g>
<defs>
<linearGradient id="paint0_linear_1_737" x1="0" y1="0" x2="27" y2="0" gradientUnits="userSpaceOnUse">
<stop stop-color="#00FF8F"/>
<stop offset="1" stop-color="#00A1FF"/>
</linearGradient>
<linearGradient id="paint1_linear_1_737" x1="32.8846" y1="9.23077" x2="105" y2="9.23077" gradientUnits="userSpaceOnUse">
<stop stop-color="#147D6C"/>
<stop offset="1" stop-color="#1EFFFF"/>
</linearGradient>
<clipPath id="clip0_1_737">
<rect width="105" height="27" fill="white"/>
</clipPath>
</defs>
</svg>
