<svg width="994" height="250" viewBox="0 0 994 250" fill="none" xmlns="http://www.w3.org/2000/svg">
<g clip-path="url(#clip0_1_953)">
<path d="M49.4523 24.8708C48.2965 40.0517 44.9116 94.1537 65.964 99.241C68.0279 48.2074 77.5221 37.064 119.214 0C112.692 8.15568 97.6663 24.1441 96.4279 34.157C107.656 23.4173 123.92 12.2739 144.724 0C133.001 10.0129 91.4744 45.8656 102.702 64.0342C141.009 29.312 155.787 28.02 212.092 30.6848C201.607 31.9767 179.399 32.865 171.308 39.0827C186.994 39.2442 206.56 42.5549 230.172 48.3689C214.569 47.2384 159.337 43.9276 154.136 64.5187C206.313 66.5375 217.706 75.8236 255.6 116.602C247.179 110.223 230.915 95.5265 220.678 94.3152C231.658 105.297 243.051 121.205 255.6 141.554C245.363 130.087 208.707 89.4703 190.131 100.452C225.631 138.081 226.952 152.132 224.228 207.445C222.99 197.432 221.751 175.065 215.642 167.474C215.477 182.897 212.092 201.954 206.148 225.129C207.304 209.948 210.606 155.846 189.554 150.759C187.572 201.793 178.078 212.855 136.386 250C142.66 242.006 158.016 225.371 159.172 215.762C147.944 226.583 131.68 237.726 110.793 250C122.599 240.068 164.043 204.054 152.898 185.966C114.591 220.688 99.8128 221.899 43.5081 219.315C53.6628 218.104 76.614 216.893 84.3744 210.917C68.6058 210.756 49.0395 207.445 25.4279 201.631C40.9488 202.762 96.2628 205.992 101.464 185.401C49.2872 183.463 37.9767 174.176 0 133.398C8.0907 139.535 25.1802 154.554 35.0047 155.685C23.9419 144.703 12.5488 128.795 0 108.366C10.1547 119.913 46.893 160.449 65.4686 149.467C29.9686 111.999 28.6477 97.626 31.3721 42.5549C32.693 52.8101 33.6012 74.5317 39.9581 82.4451C40.1233 67.1027 43.5081 47.9651 49.4523 24.8708ZM92.1349 79.4574C91.6395 86.4018 90.1535 110.95 99.7302 113.291C100.638 90.1163 104.931 85.0291 123.92 68.1525C120.948 71.8669 114.095 79.1344 113.517 83.7371C118.636 78.8114 125.984 73.7242 135.478 68.1525C130.112 72.7552 111.288 88.9858 116.407 97.303C133.827 81.4761 140.514 80.9109 166.107 82.1221C161.319 82.6873 151.247 83.0911 147.531 85.9173C154.714 85.9981 163.548 87.5323 174.28 90.1163C167.263 89.6318 142.165 88.1783 139.771 97.5452C163.465 98.4335 168.666 102.632 185.838 121.205C182.041 118.298 174.61 111.596 169.987 111.03C175.023 116.037 180.142 123.224 185.838 132.51C181.215 127.261 164.538 108.85 156.117 113.857C172.216 130.975 172.877 137.355 171.638 162.468C171.06 157.946 170.483 147.771 167.676 144.299C167.676 151.324 166.107 159.964 163.383 170.462C163.878 163.598 165.447 138.97 155.87 136.709C154.962 159.884 150.669 164.971 131.68 181.767C134.57 178.214 141.505 170.623 142.083 166.263C136.964 171.189 129.616 176.195 120.122 181.767C125.406 177.245 144.312 160.933 139.193 152.697C121.773 168.443 115.086 169.089 89.493 167.878C94.1163 167.313 104.519 166.747 108.069 164.002C100.886 164.002 92.0523 162.468 81.2372 159.803C88.3372 160.287 113.435 161.822 115.829 152.455C92.1349 151.567 86.9337 147.368 69.6791 128.795C73.3942 131.621 81.1547 138.404 85.6128 138.97C80.5768 133.963 75.3756 126.776 69.6791 117.49C74.3023 122.658 91.0616 141.15 99.4826 136.143C83.3012 119.105 82.7233 112.565 83.9616 87.5323C84.5395 92.2158 84.9523 102.067 87.8419 105.701C87.9244 98.6757 89.493 89.9548 92.1349 79.4574Z" fill="url(#paint0_linear_1_953)"/>
<path d="M324.453 85.6372H311.308L327.867 165.119H342.207L331.623 116.194L324.453 85.6372ZM379.766 85.6372L370.206 118.866L376.693 143.077L392.399 85.6372H379.766ZM359.107 110.015L358.083 105.841L352.62 85.6368L345.279 109.348L344.938 110.016L342.206 119.366L347.328 141.742L350.571 130.721L358.936 165.119H373.447L360.814 116.194L359.107 110.015ZM433.37 152.428C431.663 152.094 430.069 151.593 428.589 150.925C425.403 149.478 422.614 147.474 420.224 144.914C417.948 142.576 416.127 139.682 414.762 136.231C413.51 132.78 412.884 129.274 412.884 125.711V125.378V124.877C412.884 121.203 413.51 117.641 414.762 114.19C416.241 110.628 418.062 107.789 420.225 105.674C422.501 103.114 425.232 101.166 428.419 99.8302C430.354 98.9397 432.004 98.3832 433.37 98.1606V85.6374C429.386 86.194 425.858 87.1402 422.785 88.476C417.778 90.591 413.51 93.4295 409.982 96.9918C406.453 100.554 403.665 104.784 401.617 109.682C399.568 114.579 398.544 119.7 398.544 125.043V125.377V125.878C398.544 131.333 399.568 136.454 401.617 141.24C403.438 146.027 406.169 150.201 409.811 153.763C413.453 157.437 417.721 160.275 422.615 162.279C425.688 163.615 429.273 164.561 433.37 165.118V152.428ZM479.804 125.378L479.805 124.877C479.805 119.422 478.78 114.302 476.732 109.515C474.683 104.617 471.895 100.387 468.367 96.8251C464.952 93.2631 460.741 90.4799 455.733 88.4762C452.888 87.1404 449.417 86.1942 445.32 85.6377V98.3278L447.368 98.9957C448.393 99.3297 449.189 99.608 449.759 99.8306C452.945 101.278 455.734 103.281 458.124 105.842C460.4 108.179 462.221 111.074 463.586 114.524C464.838 117.975 465.464 121.482 465.464 125.044V125.378V125.879C465.464 129.552 464.838 133.114 463.586 136.565C462.107 140.127 460.286 142.966 458.123 145.081C455.847 147.641 453.116 149.589 449.929 150.925C448.449 151.593 446.913 152.094 445.32 152.428V165.118C448.734 164.673 452.148 163.727 455.563 162.279C460.229 160.387 464.497 157.548 468.366 153.764C472.122 149.868 474.91 145.638 476.731 141.074C478.78 136.176 479.804 131.055 479.804 125.712L479.804 125.378ZM561.064 165.118L539.042 135.061C542.001 134.171 544.618 133.113 546.895 131.889C549.399 130.331 551.447 128.605 553.04 126.713C554.861 124.598 556.17 122.316 556.967 119.867C557.991 117.195 558.504 114.189 558.504 110.85C558.504 106.954 557.821 103.447 556.455 100.33C555.089 97.3247 553.097 94.7089 550.48 92.4825C547.976 90.3674 544.789 88.6976 540.92 87.4732C536.936 86.2487 532.725 85.6364 528.287 85.6364H492.094V98.3265H527.091C532.44 98.3265 536.594 99.4398 539.553 101.666C542.512 103.892 543.992 107.232 543.992 111.685C543.992 115.803 542.512 119.031 539.553 121.369C536.594 123.818 532.497 125.043 527.262 125.043H492.094V165.117H506.263V137.398H524.188L544.162 165.117L561.064 165.118ZM640.105 165.118H654.445V106.509L640.105 127.047V165.118ZM654.447 85.6372H639.082L613.988 123.709L589.064 85.6372H573.699V165.119H588.039V108.681L613.647 146.251H614.159L636.522 113.858C636.636 113.413 642.611 104.006 654.447 85.6394L654.447 85.6372ZM681.931 118.699V85.4705H667.591V165.285H681.931V118.699ZM721.024 85.4705V118.699H696.1V131.723H721.024V165.285H735.193V85.4701L721.024 85.4705ZM782.995 152.428C781.288 152.094 779.694 151.593 778.215 150.925C775.028 149.478 772.24 147.474 769.85 144.914C767.574 142.576 765.753 139.682 764.387 136.231C763.135 132.78 762.509 129.274 762.509 125.711V125.378V124.877C762.509 121.203 763.135 117.641 764.387 114.19C765.866 110.628 767.688 107.789 769.85 105.674C772.126 103.114 774.858 101.166 778.044 99.8302C779.979 98.9397 781.629 98.3832 782.995 98.1606V85.6374C779.012 86.194 775.484 87.1402 772.411 88.476C767.403 90.591 763.135 93.4295 759.607 96.9918C756.079 100.554 753.29 104.784 751.242 109.682C749.193 114.579 748.169 119.7 748.169 125.043V125.377V125.878C748.169 131.333 749.193 136.454 751.242 141.24C753.063 146.027 755.794 150.201 759.436 153.763C763.078 157.437 767.346 160.275 772.24 162.279C775.313 163.615 778.898 164.561 782.995 165.118V152.428ZM829.43 125.378L829.43 124.877C829.43 119.422 828.406 114.302 826.357 109.515C824.308 104.617 821.52 100.387 817.992 96.8251C814.578 93.2631 810.366 90.4799 805.359 88.4762C802.513 87.1404 799.042 86.1942 794.945 85.6377V98.3278L796.994 98.9957C798.018 99.3297 798.815 99.608 799.384 99.8306C802.571 101.278 805.359 103.281 807.749 105.842C810.025 108.179 811.846 111.074 813.212 114.524C814.464 117.975 815.09 121.482 815.09 125.044V125.378V125.879C815.09 129.552 814.464 133.114 813.212 136.565C811.732 140.127 809.911 142.966 807.749 145.081C805.473 147.641 802.741 149.589 799.554 150.925C798.075 151.593 796.538 152.094 794.945 152.428V165.118C798.359 164.673 801.774 163.727 805.188 162.279C809.854 160.387 814.122 157.548 817.992 153.764C821.747 149.868 824.536 145.638 826.357 141.074C828.405 136.176 829.43 131.055 829.43 125.712L829.43 125.378ZM847.866 85.6372H861.865V152.427H904.544V165.117H847.865L847.866 85.6372ZM933.224 85.6372H994V98.3273H933.224V85.6372ZM933.224 152.428H993.827V165.118H933.224V152.428ZM933.224 118.699H988.024V131.222H933.224V118.699Z" fill="url(#paint1_linear_1_953)"/>
</g>
<defs>
<linearGradient id="paint0_linear_1_953" x1="0" y1="0" x2="255.6" y2="0" gradientUnits="userSpaceOnUse">
<stop stop-color="#00FF8F"/>
<stop offset="1" stop-color="#00A1FF"/>
</linearGradient>
<linearGradient id="paint1_linear_1_953" x1="311.308" y1="85.4701" x2="994" y2="85.4701" gradientUnits="userSpaceOnUse">
<stop stop-color="#147D6C"/>
<stop offset="1" stop-color="#1EFFFF"/>
</linearGradient>
<clipPath id="clip0_1_953">
<rect width="994" height="250" fill="white"/>
</clipPath>
</defs>
</svg>
